<svg width="18" height="18" viewBox="0 0 18 18" fill="none" xmlns="http://www.w3.org/2000/svg">
<path d="M9 9C10.3807 9 11.5 7.88071 11.5 6.5C11.5 5.11929 10.3807 4 9 4C7.61929 4 6.5 5.11929 6.5 6.5C6.5 7.88071 7.61929 9 9 9Z" stroke="white"/>
<path d="M9.00002 17.3334C13.6024 17.3334 17.3333 13.6024 17.3333 9.00008C17.3333 4.39771 13.6024 0.666748 9.00002 0.666748C4.39765 0.666748 0.666687 4.39771 0.666687 9.00008C0.666687 13.6024 4.39765 17.3334 9.00002 17.3334Z" stroke="white"/>
<path d="M13.9743 15.667C13.8417 13.257 13.104 11.5 9 11.5C4.8961 11.5 4.1583 13.257 4.0257 15.667" stroke="white" stroke-linecap="round"/>
</svg>
