<svg width="20" height="20" viewBox="0 0 20 20" fill="none" xmlns="http://www.w3.org/2000/svg">
<mask id="mask0_33_2950" style="mask-type:luminance" maskUnits="userSpaceOnUse" x="0" y="0" width="20" height="20">
<path d="M20 0H0V20H20V0Z" fill="white"/>
</mask>
<g mask="url(#mask0_33_2950)">
<path d="M11.6667 17.5834H8.33329V19.0834H11.6667V17.5834ZM5.29889 4.89415L6.96549 3.85975L6.17449 2.58525L4.50789 3.61965L5.29889 4.89415ZM13.0345 3.85975L14.7011 4.89415L15.4921 3.61965L13.8255 2.58525L13.0345 3.85975ZM2.41669 11.4375V10.17H0.916688V11.4375H2.41669ZM17.5833 10.17V11.4375H19.0833V10.17H17.5833ZM6.96549 3.85975C7.81419 3.33305 8.40299 2.96865 8.89349 2.73025C9.36849 2.49915 9.69249 2.41675 9.99999 2.41675V0.916748C9.38419 0.916748 8.82879 1.09365 8.23749 1.38125C7.66149 1.66135 6.99699 2.07485 6.17449 2.58525L6.96549 3.85975ZM13.8255 2.58525C13.003 2.07485 12.3385 1.66135 11.7625 1.38125C11.1712 1.09365 10.6158 0.916748 9.99999 0.916748V2.41675C10.3075 2.41675 10.6315 2.49915 11.1066 2.73025C11.597 2.96865 12.1858 3.33305 13.0345 3.85975L13.8255 2.58525ZM8.33329 17.5834C6.74009 17.5834 5.62309 17.5817 4.77909 17.4643C3.95929 17.3503 3.50889 17.1402 3.18219 16.8022L2.10379 17.8448C2.75339 18.5168 3.57689 18.8116 4.57249 18.95C5.54379 19.0851 6.78389 19.0834 8.33329 19.0834V17.5834ZM0.916688 11.4375C0.916688 13.0424 0.915187 14.319 1.04499 15.3175C1.17719 16.3351 1.45759 17.1765 2.10379 17.8448L3.18219 16.8022C2.85209 16.4607 2.64429 15.9845 2.53249 15.1242C2.41819 14.2449 2.41669 13.0834 2.41669 11.4375H0.916688ZM11.6667 19.0834C13.2161 19.0834 14.4562 19.0851 15.4276 18.95C16.4232 18.8116 17.2466 18.5168 17.8962 17.8448L16.8178 16.8022C16.4911 17.1402 16.0408 17.3503 15.2209 17.4643C14.3769 17.5817 13.2599 17.5834 11.6667 17.5834V19.0834ZM17.5833 11.4375C17.5833 13.0834 17.5818 14.2449 17.4676 15.1242C17.3557 15.9845 17.148 16.4607 16.8178 16.8022L17.8962 17.8448C18.5424 17.1765 18.8228 16.3351 18.955 15.3175C19.0848 14.319 19.0833 13.0424 19.0833 11.4375H17.5833ZM14.7011 4.89415C15.5039 5.39235 16.0599 5.73845 16.4732 6.05495C16.873 6.36105 17.0935 6.60645 17.2428 6.87915L18.5586 6.15895C18.2752 5.64125 17.8841 5.24615 17.3853 4.86405C16.9 4.49245 16.2703 4.10265 15.4921 3.61965L14.7011 4.89415ZM19.0833 10.17C19.0833 9.23045 19.0841 8.47435 19.026 7.85565C18.9664 7.22185 18.8413 6.67545 18.5586 6.15895L17.2428 6.87915C17.3928 7.15315 17.4839 7.47875 17.5325 7.99605C17.5826 8.52845 17.5833 9.20265 17.5833 10.17H19.0833ZM4.50789 3.61965C3.72969 4.10265 3.10009 4.49245 2.61479 4.86405C2.11589 5.24615 1.72479 5.64125 1.44139 6.15895L2.75719 6.87915C2.90649 6.60645 3.12699 6.36105 3.52679 6.05495C3.94009 5.73845 4.49609 5.39235 5.29889 4.89415L4.50789 3.61965ZM2.41669 10.17C2.41669 9.20265 2.41739 8.52845 2.46749 7.99605C2.51609 7.47875 2.60729 7.15315 2.75719 6.87915L1.44139 6.15895C1.15879 6.67545 1.03359 7.22185 0.973987 7.85565C0.915887 8.47435 0.916688 9.23045 0.916688 10.17H2.41669Z" fill="white"/>
<path d="M7.5 13.3333C8.2086 13.8585 9.0705 14.1666 10 14.1666C10.9295 14.1666 11.7914 13.8585 12.5 13.3333" stroke="white" stroke-width="1.5" stroke-linecap="round"/>
</g>
</svg>
