<svg width="18" height="18" viewBox="0 0 18 18" fill="none" xmlns="http://www.w3.org/2000/svg">
<path d="M1.91669 8.16699V10.667C1.91669 13.809 1.91669 15.381 2.89299 16.357C3.86929 17.333 5.44059 17.333 8.58329 17.333H9.41669C12.5594 17.333 14.1307 17.333 15.107 16.357C16.0833 15.381 16.0833 13.809 16.0833 10.667V8.16699" stroke="white"/>
<path d="M6.91669 0.666992H11.0833L11.6265 6.09799C11.7818 7.65199 10.5616 9 8.99999 9C7.43839 9 6.21819 7.65199 6.37359 6.09799L6.91669 0.666992Z" stroke="white"/>
<path d="M1.77481 3.45999C1.92321 2.71799 1.99741 2.34699 2.14821 2.04599C2.46611 1.41199 3.03811 0.943012 3.72191 0.756012C4.04641 0.667012 4.42471 0.666992 5.18141 0.666992H6.91671L6.31291 6.70401C6.18261 8.00801 5.08601 9 3.77631 9C2.16761 9 0.961007 7.52799 1.27651 5.95099L1.77481 3.45999Z" stroke="white"/>
<path d="M16.2252 3.45999C16.0768 2.71799 16.0026 2.34699 15.8517 2.04599C15.5339 1.41199 14.9619 0.943012 14.2781 0.756012C13.9536 0.667012 13.5753 0.666992 12.8186 0.666992H11.0833L11.6871 6.70401C11.8174 8.00801 12.914 9 14.2237 9C15.8324 9 17.039 7.52799 16.7235 5.95099L16.2252 3.45999Z" stroke="white"/>
</svg>
