<svg width="17" height="16" viewBox="0 0 17 16" fill="none" xmlns="http://www.w3.org/2000/svg">
<path d="M0.666687 0.5L0.887386 0.574005C1.98749 0.940005 2.53749 1.124 2.85209 1.56C3.16669 1.997 3.16669 2.57599 3.16669 3.73599V5.91701C3.16669 8.27401 3.16669 9.45201 3.89889 10.184C4.63109 10.917 5.80959 10.917 8.16669 10.917H14.8333" stroke="white" stroke-linecap="round"/>
<path d="M5.25 13C5.9404 13 6.5 13.56 6.5 14.25C6.5 14.94 5.9404 15.5 5.25 15.5C4.5596 15.5 4 14.94 4 14.25C4 13.56 4.5596 13 5.25 13Z" stroke="white"/>
<path d="M12.75 13C13.4404 13 14 13.56 14 14.25C14 14.94 13.4404 15.5 12.75 15.5C12.0596 15.5 11.5 14.94 11.5 14.25C11.5 13.56 12.0596 13 12.75 13Z" stroke="white"/>
<path d="M3.16669 3H12.7087C14.4211 3 15.2774 3 15.6479 3.562C16.0184 4.124 15.6811 4.911 15.0065 6.485L14.6494 7.31799C14.3344 8.05299 14.177 8.42 13.8639 8.627C13.5508 8.833 13.151 8.83299 12.3515 8.83299H3.16669" stroke="white"/>
</svg>
