<svg width="18" height="18" viewBox="0 0 18 18" fill="none" xmlns="http://www.w3.org/2000/svg">
<path d="M2.94039 12.4469C1.65249 11.1599 1.00849 10.5159 0.768889 9.67987C0.529289 8.84487 0.73399 7.95689 1.14359 6.18189L1.37979 5.15888C1.72439 3.66588 1.89659 2.91887 2.40789 2.40787C2.91909 1.89687 3.66569 1.72388 5.15879 1.37988L6.18229 1.14389C7.95709 0.733892 8.84449 0.528892 9.67999 0.768892C10.5155 1.00889 11.1595 1.65288 12.4474 2.93988L13.9721 4.46488C16.2129 6.70588 17.3333 7.82587 17.3333 9.21887C17.3333 10.6109 16.2129 11.7309 13.9721 13.9719C11.7313 16.2129 10.6109 17.3329 9.21859 17.3329C7.82629 17.3329 6.70589 16.2129 4.46509 13.9719L2.94039 12.4469Z" stroke="white"/>
<path d="M7.35103 7.57744C8.00191 6.92657 8.0019 5.87128 7.35102 5.2204C6.70015 4.56953 5.64488 4.56954 4.994 5.22041C4.34313 5.87129 4.34312 6.92655 4.99399 7.57743C5.64487 8.2283 6.70016 8.22832 7.35103 7.57744Z" stroke="white"/>
<path d="M8.6181 14.4168L14.434 8.59985" stroke="white" stroke-linecap="round"/>
</svg>
