<svg width="16" height="18" viewBox="0 0 16 18" fill="none" xmlns="http://www.w3.org/2000/svg">
<path d="M11.3333 2.33496C13.1459 2.34496 14.1274 2.42492 14.7678 3.06592C15.5 3.79792 15.5 4.97595 15.5 7.33295V12.3329C15.5 14.6899 15.5 15.869 14.7678 16.601C14.0355 17.333 12.857 17.3329 10.5 17.3329H5.5C3.143 17.3329 1.9645 17.333 1.2322 16.601C0.5 15.869 0.5 14.6899 0.5 12.3329V7.33295C0.5 4.97595 0.5 3.79792 1.2322 3.06592C1.8726 2.42492 2.8541 2.34496 4.6667 2.33496" stroke="white"/>
<path d="M4.66669 10.667H11.3333" stroke="white" stroke-linecap="round"/>
<path d="M3.83331 7.75H12.1667" stroke="white" stroke-linecap="round"/>
<path d="M5.5 13.583H10.5" stroke="white" stroke-linecap="round"/>
<path d="M4.66669 1.91699C4.66669 1.22599 5.22629 0.666992 5.91669 0.666992H10.0833C10.7737 0.666992 11.3333 1.22599 11.3333 1.91699V2.75C11.3333 3.44 10.7737 4 10.0833 4H5.91669C5.22629 4 4.66669 3.44 4.66669 2.75V1.91699Z" stroke="white"/>
</svg>
