<svg width="14" height="18" viewBox="0 0 14 18" fill="none" xmlns="http://www.w3.org/2000/svg">
<path d="M6.28827 4.85199C6.60497 4.28399 6.76327 4 6.99997 4C7.23667 4 7.39497 4.28399 7.71167 4.85199L7.79357 4.99902C7.88357 5.16002 7.92857 5.24101 7.99877 5.29401C8.06887 5.34801 8.15627 5.36698 8.33097 5.40698L8.49007 5.44299C9.10497 5.58199 9.41247 5.65202 9.48557 5.88702C9.55877 6.12202 9.34917 6.36699 8.92997 6.85699L8.82147 6.98401C8.70237 7.12401 8.64277 7.19299 8.61597 7.27899C8.58917 7.36599 8.59817 7.45898 8.61627 7.64398L8.63267 7.81403C8.69597 8.46803 8.72767 8.795 8.53617 8.94C8.34467 9.085 8.05677 8.95299 7.48107 8.68799L7.33207 8.61902C7.16847 8.54402 7.08667 8.50598 6.99997 8.50598C6.91327 8.50598 6.83147 8.54402 6.66787 8.61902L6.51887 8.68799C5.94317 8.95299 5.65527 9.085 5.46377 8.94C5.27227 8.795 5.30397 8.46803 5.36727 7.81403L5.38367 7.64398C5.40177 7.45898 5.41077 7.36599 5.38397 7.27899C5.35717 7.19299 5.29757 7.12401 5.17847 6.98401L5.06997 6.85699C4.65077 6.36699 4.44117 6.12202 4.51437 5.88702C4.58747 5.65202 4.89497 5.58199 5.50987 5.44299L5.66897 5.40698C5.84367 5.36698 5.93107 5.34801 6.00117 5.29401C6.07137 5.24101 6.11637 5.16002 6.20637 4.99902L6.28827 4.85199Z" stroke="white"/>
<path d="M12.8333 6.5C12.8333 9.722 10.2217 12.333 6.99999 12.333C3.77829 12.333 1.16669 9.722 1.16669 6.5C1.16669 3.278 3.77829 0.666992 6.99999 0.666992C10.2217 0.666992 12.8333 3.278 12.8333 6.5Z" stroke="white"/>
<path d="M3.1259 11.5L2.5952 13.436C2.0716 15.346 1.8098 16.301 2.1591 16.823C2.2816 17.007 2.4458 17.154 2.6364 17.251C3.1803 17.528 4.02 17.09 5.6994 16.215C6.2582 15.924 6.5376 15.778 6.8345 15.747C6.9446 15.735 7.0554 15.735 7.1655 15.747C7.4624 15.778 7.7418 15.924 8.3006 16.215C9.98 17.09 10.8197 17.528 11.3636 17.251C11.5542 17.154 11.7184 17.007 11.8409 16.823C12.1902 16.301 11.9284 15.346 11.4048 13.436L10.8741 11.5" stroke="white" stroke-linecap="round"/>
</svg>
