<svg width="18" height="17" viewBox="0 0 18 17" fill="none" xmlns="http://www.w3.org/2000/svg">
<path d="M13.5118 6.6785C14 6.1904 14 5.4047 14 3.8333C14 2.262 14 1.4763 13.5118 0.988197M13.5118 6.6785C13.0237 7.1667 12.238 7.1667 10.6667 7.1667H7.3333C5.762 7.1667 4.9763 7.1667 4.4882 6.6785M13.5118 0.988197C13.0237 0.499997 12.238 0.5 10.6667 0.5H7.3333C5.762 0.5 4.9763 0.499997 4.4882 0.988197M4.4882 0.988197C4 1.4763 4 2.262 4 3.8333C4 5.4047 4 6.1904 4.4882 6.6785" stroke="white"/>
<path d="M9.83329 3.8333C9.83329 4.2936 9.46019 4.6667 8.99999 4.6667C8.53979 4.6667 8.16669 4.2936 8.16669 3.8333C8.16669 3.3731 8.53979 3 8.99999 3C9.46019 3 9.83329 3.3731 9.83329 3.8333Z" stroke="white"/>
<path d="M14 3C12.6193 3 11.5 1.8807 11.5 0.5" stroke="white" stroke-linecap="round"/>
<path d="M14 4.66675C12.6193 4.66675 11.5 5.78605 11.5 7.16675" stroke="white" stroke-linecap="round"/>
<path d="M4 3C5.3807 3 6.5 1.8807 6.5 0.5" stroke="white" stroke-linecap="round"/>
<path d="M4 4.66675C5.3807 4.66675 6.5 5.78605 6.5 7.16675" stroke="white" stroke-linecap="round"/>
<path d="M3.16669 14.9904H5.04999C5.89229 14.9904 6.74379 15.0782 7.56359 15.2471C9.01379 15.5458 10.5407 15.582 12.0058 15.3449C12.7282 15.2279 13.4384 15.0491 14.0812 14.7389C14.6616 14.4587 15.3725 14.0639 15.8499 13.6217C16.3268 13.1801 16.8233 12.4573 17.1758 11.8924C17.478 11.4079 17.3318 10.8136 16.8538 10.4526C16.3228 10.0517 15.5348 10.0517 15.0039 10.4528L13.4979 11.5904C12.9142 12.0313 12.2766 12.4372 11.5172 12.5583C11.4258 12.5729 11.3301 12.5862 11.2303 12.5977M11.2303 12.5977C11.2002 12.6012 11.1698 12.6046 11.139 12.6077M11.2303 12.5977C11.3518 12.5717 11.4725 12.4968 11.5856 12.398C12.1216 11.9302 12.1555 11.1417 11.6905 10.6194C11.5826 10.4981 11.4563 10.3971 11.3159 10.3133C8.98479 8.92299 5.35789 9.98189 3.16669 11.5358M11.2303 12.5977C11.1999 12.6043 11.1694 12.6077 11.139 12.6077M11.139 12.6077C10.7029 12.6525 10.1926 12.6641 9.62649 12.6106" stroke="white" stroke-linecap="round"/>
<path d="M3.16669 10.9167C3.16669 10.2264 2.60704 9.66675 1.91669 9.66675C1.22633 9.66675 0.666687 10.2264 0.666687 10.9167V15.0834C0.666687 15.7738 1.22633 16.3334 1.91669 16.3334C2.60704 16.3334 3.16669 15.7738 3.16669 15.0834V10.9167Z" stroke="white"/>
</svg>
