<svg width="18" height="19" viewBox="0 0 18 19" fill="none" xmlns="http://www.w3.org/2000/svg">
<path d="M4.83329 13.999C3.02079 13.989 2.03919 13.908 1.39889 13.268C0.666687 12.536 0.666687 11.357 0.666687 9V5.66699C0.666687 3.30999 0.666687 2.13099 1.39889 1.39899C2.13109 0.666987 3.30959 0.666992 5.66669 0.666992H12.3333C14.6904 0.666992 15.8689 0.666987 16.6011 1.39899C17.3333 2.13099 17.3333 3.30999 17.3333 5.66699V9C17.3333 11.357 17.3333 12.536 16.6011 13.268C15.9929 13.876 15.0767 13.979 13.4331 13.997L12.75 13.999" stroke="white"/>
<path d="M6.5 4H11.5" stroke="white" stroke-linecap="round"/>
<path d="M4.83331 6.91699H13.1667" stroke="white" stroke-linecap="round"/>
<path d="M8.07547 10.621C8.60827 10.167 9.39166 10.167 9.92446 10.621C10.1527 10.816 10.4366 10.933 10.7355 10.957C11.4332 11.013 11.9872 11.567 12.0429 12.265C12.0668 12.564 12.1843 12.847 12.3789 13.076C12.8328 13.608 12.8328 14.392 12.3789 14.925C12.1843 15.153 12.0668 15.437 12.0429 15.736C11.9872 16.433 11.4332 16.987 10.7355 17.043C10.4366 17.067 10.1527 17.184 9.92446 17.379C9.39166 17.833 8.60827 17.833 8.07547 17.379C7.84727 17.184 7.56336 17.067 7.26446 17.043C6.56676 16.987 6.01277 16.433 5.95707 15.736C5.93317 15.437 5.81566 15.153 5.62106 14.925C5.16716 14.392 5.16716 13.608 5.62106 13.076C5.81566 12.847 5.93317 12.564 5.95707 12.265C6.01277 11.567 6.56676 11.013 7.26446 10.957C7.56336 10.933 7.84727 10.816 8.07547 10.621Z" stroke="white"/>
<path d="M7.75 14.167L8.4643 14.833L10.25 13.167" stroke="white" stroke-linecap="round" stroke-linejoin="round"/>
</svg>
