<svg width="18" height="16" viewBox="0 0 18 16" fill="none" xmlns="http://www.w3.org/2000/svg">
<path d="M13.1667 7.00391C13.1667 6.71591 13.1667 6.57191 13.21 6.44291C13.3358 6.06991 13.6683 5.9259 14.0017 5.7739C14.375 5.6029 14.5617 5.51791 14.7475 5.50291C14.9575 5.48691 15.1683 5.53191 15.3483 5.63291C15.5867 5.76591 15.7533 6.02091 15.9233 6.22791C16.7092 7.18291 17.1025 7.65992 17.2458 8.18592C17.3625 8.61092 17.3625 9.05593 17.2458 9.47993C17.0367 10.2479 16.3742 10.8919 15.8833 11.4879C15.6325 11.7929 15.5067 11.9449 15.3483 12.0339C15.1652 12.1359 14.9561 12.1809 14.7475 12.1629C14.5617 12.1479 14.375 12.0629 14.0008 11.8929C13.6675 11.7409 13.3358 11.5969 13.21 11.2229C13.1667 11.0949 13.1667 10.9509 13.1667 10.6629V7.00391ZM4.83332 7.00391C4.83332 6.64091 4.82332 6.31491 4.53002 6.05991C4.42332 5.96791 4.28172 5.9029 3.99922 5.7739C3.62502 5.6039 3.43832 5.51791 3.25252 5.50291C2.69672 5.45791 2.39752 5.83791 2.07752 6.22791C1.29082 7.18291 0.897521 7.65993 0.753321 8.18693C0.637321 8.60993 0.637321 9.0569 0.753321 9.4809C0.963321 10.2479 1.62672 10.8929 2.11672 11.4879C2.42582 11.8629 2.72172 12.2059 3.25252 12.1629C3.43832 12.1479 3.62502 12.0629 3.99922 11.8929C4.28252 11.7639 4.42332 11.6989 4.53002 11.6069C4.82332 11.3519 4.83332 11.0259 4.83332 10.6629V7.00391Z" stroke="white" stroke-linecap="round" stroke-linejoin="round"/>
<path d="M3.16675 5.5C3.16675 2.738 5.77835 0.5 9.00005 0.5C12.2217 0.5 14.8333 2.738 14.8333 5.5M14.8333 12.167V12.833C14.8333 14.306 13.3417 15.5 11.5 15.5H9.83335" stroke="white" stroke-linecap="round" stroke-linejoin="round"/>
</svg>
