<svg width="18" height="18" viewBox="0 0 18 18" fill="none" xmlns="http://www.w3.org/2000/svg">
<path d="M10.336 17.078L10.788 16.315L9.927 15.805L9.47498 16.568L10.336 17.078ZM7.21198 16.315L7.664 17.078L8.52503 16.568L8.073 15.805L7.21198 16.315ZM9.47498 16.568C9.26598 16.922 8.73403 16.922 8.52503 16.568L7.664 17.078C8.26 18.085 9.74 18.085 10.336 17.078L9.47498 16.568ZM7.75 1.16699H10.25V0.166993H7.75V1.16699ZM16.833 7.75V8.58301H17.833V7.75H16.833ZM1.16699 8.58301V7.75H0.166994V8.58301H1.16699ZM0.166994 8.58301C0.166994 9.54701 0.165973 10.295 0.206973 10.897C0.248973 11.504 0.333975 11.999 0.521975 12.453L1.44599 12.07C1.31699 11.758 1.24302 11.385 1.20502 10.829C1.16702 10.269 1.16699 9.56101 1.16699 8.58301H0.166994ZM5.5 14.326C4.454 14.308 3.884 14.242 3.43 14.054L3.047 14.978C3.694 15.246 4.43697 15.308 5.48297 15.326L5.5 14.326ZM0.521975 12.453C0.995975 13.596 1.904 14.505 3.047 14.978L3.43 14.054C2.532 13.682 1.81799 12.968 1.44599 12.07L0.521975 12.453ZM16.833 8.58301C16.833 9.56101 16.833 10.269 16.795 10.829C16.757 11.385 16.683 11.758 16.554 12.07L17.478 12.453C17.666 11.999 17.751 11.504 17.793 10.897C17.834 10.295 17.833 9.54701 17.833 8.58301H16.833ZM12.517 15.326C13.563 15.308 14.306 15.246 14.953 14.978L14.57 14.054C14.116 14.242 13.546 14.308 12.5 14.326L12.517 15.326ZM16.554 12.07C16.182 12.968 15.468 13.682 14.57 14.054L14.953 14.978C16.096 14.505 17.004 13.596 17.478 12.453L16.554 12.07ZM10.25 1.16699C11.624 1.16699 12.619 1.16703 13.397 1.24103C14.167 1.31503 14.673 1.45597 15.083 1.70697L15.605 0.854005C15.012 0.491005 14.335 0.325972 13.491 0.245972C12.655 0.165972 11.604 0.166993 10.25 0.166993V1.16699ZM17.833 7.75C17.833 6.396 17.834 5.34497 17.754 4.50897C17.674 3.66497 17.509 2.98802 17.146 2.39502L16.293 2.91803C16.544 3.32703 16.686 3.83303 16.759 4.60303C16.833 5.38103 16.833 6.376 16.833 7.75H17.833ZM15.083 1.70697C15.576 2.00897 15.991 2.42403 16.293 2.91803L17.146 2.39502C16.761 1.76702 16.233 1.239 15.605 0.854005L15.083 1.70697ZM7.75 0.166993C6.396 0.166993 5.34497 0.165972 4.50897 0.245972C3.66497 0.325972 2.98802 0.491005 2.39502 0.854005L2.91803 1.70697C3.32703 1.45597 3.83303 1.31503 4.60303 1.24103C5.38103 1.16703 6.376 1.16699 7.75 1.16699V0.166993ZM1.16699 7.75C1.16699 6.376 1.16703 5.38103 1.24103 4.60303C1.31403 3.83303 1.45597 3.32703 1.70697 2.91803L0.854006 2.39502C0.491006 2.98802 0.325974 3.66497 0.245974 4.50897C0.165974 5.34497 0.166994 6.396 0.166994 7.75H1.16699ZM2.39502 0.854005C1.76702 1.239 1.23901 1.76702 0.854006 2.39502L1.70697 2.91803C2.00897 2.42403 2.42403 2.00897 2.91803 1.70697L2.39502 0.854005ZM8.073 15.805C7.903 15.517 7.75701 15.271 7.61701 15.079C7.47101 14.878 7.30898 14.705 7.08698 14.576L6.58399 15.44C6.64399 15.475 6.71002 15.532 6.80902 15.668C6.91502 15.813 7.03198 16.011 7.21198 16.315L8.073 15.805ZM5.48297 15.326C5.84597 15.332 6.08498 15.337 6.26898 15.357C6.44298 15.377 6.52599 15.407 6.58399 15.44L7.08698 14.576C6.86398 14.446 6.62903 14.391 6.37903 14.364C6.13803 14.337 5.845 14.332 5.5 14.326L5.48297 15.326ZM10.788 16.315C10.968 16.011 11.085 15.813 11.191 15.668C11.29 15.532 11.356 15.475 11.416 15.44L10.913 14.576C10.691 14.705 10.529 14.878 10.383 15.079C10.243 15.271 10.097 15.517 9.927 15.805L10.788 16.315ZM12.5 14.326C12.155 14.332 11.862 14.337 11.621 14.364C11.371 14.391 11.136 14.446 10.913 14.576L11.416 15.44C11.474 15.407 11.557 15.377 11.731 15.357C11.915 15.337 12.154 15.332 12.517 15.326L12.5 14.326Z" fill="#08AC7B"/>
</svg>
