<svg width="19" height="18" viewBox="0 0 19 18" fill="none" xmlns="http://www.w3.org/2000/svg">
<path d="M1.33301 10.667C1.33301 7.52399 1.333 5.95301 2.31 4.97601C3.286 4.00001 4.857 4 8 4H11.333C14.476 4 16.047 4.00001 17.024 4.97601C18 5.95301 18 7.52399 18 10.667C18 13.809 18 15.381 17.024 16.357C16.047 17.333 14.476 17.333 11.333 17.333H8C4.857 17.333 3.286 17.333 2.31 16.357C1.333 15.381 1.33301 13.809 1.33301 10.667Z" stroke="#08AC7B"/>
<path d="M13 4C13 2.429 13 1.643 12.512 1.155C12.024 0.666999 11.238 0.666992 9.66699 0.666992C8.09499 0.666992 7.30998 0.666999 6.82098 1.155C6.33298 1.643 6.33301 2.429 6.33301 4" stroke="#08AC7B"/>
<path d="M9.66699 13.444C10.587 13.444 11.333 12.823 11.333 12.055C11.333 11.288 10.587 10.667 9.66699 10.667C8.74599 10.667 8 10.045 8 9.27802C8 8.51102 8.74599 7.88901 9.66699 7.88901M9.66699 13.444C8.74599 13.444 8 12.823 8 12.055M9.66699 13.444V14M9.66699 7.88901V7.33301M9.66699 7.88901C10.587 7.88901 11.333 8.51102 11.333 9.27802" stroke="#08AC7B" stroke-linecap="round"/>
</svg>
