<svg width="18" height="18" viewBox="0 0 18 18" fill="none" xmlns="http://www.w3.org/2000/svg">
<path d="M1.91992 8.16699V10.667C1.91992 13.809 1.91989 15.381 2.88989 16.357C3.86989 17.333 5.43983 17.333 8.57983 17.333H9.41992C12.5599 17.333 14.1299 17.333 15.1099 16.357C16.0799 15.381 16.0798 13.809 16.0798 10.667V8.16699" stroke="#08AC7B"/>
<path d="M6.91996 0.666992H11.0799L11.6299 6.09802C11.7799 7.65202 10.5599 9 8.99992 9C7.43992 9 6.21991 7.65202 6.36991 6.09802L6.91996 0.666992Z" stroke="#08AC7B"/>
<path d="M1.77008 3.46002C1.92008 2.71802 2.00008 2.34702 2.15008 2.04602C2.47008 1.41202 3.04003 0.942981 3.72003 0.755981C4.05003 0.666981 4.42011 0.666992 5.18011 0.666992H6.9201L6.31011 6.70398C6.18011 8.00798 5.09009 9 3.78009 9C2.17009 9 0.960085 7.52799 1.28009 5.95099L1.77008 3.46002Z" stroke="#08AC7B"/>
<path d="M16.2301 3.46002C16.0801 2.71802 16.0001 2.34702 15.8501 2.04602C15.5301 1.41202 14.9602 0.942981 14.2802 0.755981C13.9502 0.666981 13.5801 0.666992 12.8201 0.666992H11.0801L11.6901 6.70398C11.8201 8.00798 12.9101 9 14.2201 9C15.8301 9 17.0401 7.52799 16.7201 5.95099L16.2301 3.46002Z" stroke="#08AC7B"/>
<path d="M6.91992 16.917V14.417C6.91992 13.638 6.91983 13.248 7.07983 12.958C7.18983 12.768 7.34992 12.61 7.53992 12.501C7.82992 12.333 8.21988 12.333 8.99988 12.333C9.77988 12.333 10.1698 12.333 10.4598 12.501C10.6498 12.61 10.8099 12.768 10.9199 12.958C11.0799 13.248 11.0798 13.638 11.0798 14.417V16.917" stroke="#08AC7B" stroke-linecap="round"/>
</svg>
