<svg width="18" height="20" viewBox="0 0 18 20" fill="none" xmlns="http://www.w3.org/2000/svg">
<path d="M14.62 8.09099V7.50398C14.62 4.27998 12.1101 1.66699 9.00005 1.66699C5.89005 1.66699 3.38006 4.27998 3.38006 7.50398V8.09099C3.38006 8.79599 3.1701 9.48498 2.8001 10.071L1.88006 11.508C1.03006 12.82 1.68007 14.604 3.14007 15.019C6.98007 16.105 11.02 16.105 14.86 15.019C16.32 14.604 16.97 12.82 16.12 11.508L15.2 10.071C14.83 9.48498 14.62 8.79599 14.62 8.09099Z" stroke="#08AC7B" stroke-width="1.5"/>
<path d="M5.25 15.833C5.8 17.29 7.27 18.333 9 18.333C10.73 18.333 12.2 17.29 12.75 15.833" stroke="#08AC7B" stroke-width="1.5" stroke-linecap="round"/>
<path d="M13.77 5.8569C15.17 5.8569 16.3101 4.71591 16.3101 3.30991C16.3101 1.90391 15.17 0.763916 13.77 0.763916C12.36 0.763916 11.22 1.90391 11.22 3.30991C11.22 4.71591 12.36 5.8569 13.77 5.8569Z" fill="#FF0000"/>
</svg>
