<svg width="18" height="18" viewBox="0 0 18 18" fill="none" xmlns="http://www.w3.org/2000/svg">
<path d="M11.981 1.81799L13.648 2.69299C15.441 3.63399 16.338 4.10401 16.835 4.95001C17.333 5.79501 17.333 6.84699 17.333 8.95099V9.04901C17.333 11.153 17.333 12.205 16.835 13.05C16.338 13.896 15.441 14.366 13.648 15.307L11.981 16.182C10.518 16.95 9.787 17.333 9 17.333C8.213 17.333 7.48201 16.95 6.01901 16.182L4.35199 15.307C2.55899 14.366 1.662 13.896 1.164 13.05C0.667001 12.205 0.666992 11.153 0.666992 9.04901V8.95099C0.666992 6.84699 0.667001 5.79501 1.164 4.95001C1.662 4.10401 2.55899 3.63399 4.35199 2.69299L6.01901 1.81799C7.48201 1.05099 8.213 0.666992 9 0.666992C9.787 0.666992 10.518 1.05099 11.981 1.81799Z" stroke="#08AC7B" stroke-linecap="round"/>
<path d="M16.5 5.25L13.167 6.91699M13.167 6.91699C13.167 6.91699 12.913 7.044 12.75 7.125C11.286 7.857 9 9 9 9M13.167 6.91699V9.83301M13.167 6.91699L5.25 2.75M9 9L1.5 5.25M9 9V16.917" stroke="#08AC7B" stroke-linecap="round"/>
</svg>
