<svg width="18" height="18" viewBox="0 0 18 18" fill="none" xmlns="http://www.w3.org/2000/svg">
<path d="M11.9814 1.81798L13.6481 2.69298C15.4411 3.63398 16.3377 4.10398 16.8355 4.94998C17.3333 5.79498 17.3333 6.84697 17.3333 8.95097V9.049C17.3333 11.153 17.3333 12.205 16.8355 13.05C16.3377 13.896 15.4411 14.366 13.6481 15.307L11.9814 16.182C10.5184 16.95 9.78689 17.333 8.99999 17.333C8.21309 17.333 7.48159 16.95 6.01859 16.182L4.35189 15.307C2.55879 14.366 1.66229 13.896 1.16449 13.05C0.666687 12.205 0.666687 11.153 0.666687 9.049V8.95097C0.666687 6.84697 0.666687 5.79498 1.16449 4.94998C1.66229 4.10398 2.55879 3.63398 4.35189 2.69298L6.01859 1.81798C7.48159 1.05098 8.21309 0.666992 8.99999 0.666992C9.78689 0.666992 10.5184 1.05098 11.9814 1.81798Z" stroke="white" stroke-linecap="round"/>
<path d="M16.5 5.25L13.1667 6.91701M13.1667 6.91701C13.1667 6.91701 12.9127 7.044 12.75 7.125C11.2855 7.857 9 9 9 9M13.1667 6.91701V9.83301M13.1667 6.91701L5.25 2.75M9 9L1.5 5.25M9 9V16.917" stroke="white" stroke-linecap="round"/>
</svg>
