<svg width="13" height="18" viewBox="0 0 13 18" fill="none" xmlns="http://www.w3.org/2000/svg">
<path d="M5.62004 4.85199C5.94004 4.28399 6.1 4 6.33 4C6.57 4 6.73009 4.28399 7.05009 4.85199L7.13005 4.99899C7.22005 5.15999 7.26 5.24101 7.33 5.29401C7.4 5.34801 7.49008 5.36701 7.66008 5.40701L7.81999 5.44299C8.43999 5.58199 8.74999 5.65199 8.81999 5.88699C8.88999 6.12199 8.68005 6.36699 8.26005 6.85699L8.15007 6.98401C8.04007 7.12401 7.97999 7.19299 7.94999 7.27899C7.91999 7.36599 7.92999 7.45901 7.94999 7.64401L7.97001 7.814C8.03001 8.468 8.06004 8.795 7.87004 8.94C7.68004 9.085 7.3901 8.95299 6.8101 8.68799L6.67009 8.61899C6.50009 8.54399 6.42 8.50601 6.33 8.50601C6.25 8.50601 6.16004 8.54399 6.00004 8.61899L5.85002 8.68799C5.28002 8.95299 4.99009 9.085 4.80009 8.94C4.61009 8.795 4.63999 8.468 4.69999 7.814L4.72001 7.64401C4.74001 7.45901 4.74001 7.36599 4.72001 7.27899C4.69001 7.19299 4.63005 7.12401 4.51005 6.98401L4.40007 6.85699C3.98007 6.36699 3.77002 6.12199 3.85002 5.88699C3.92002 5.65199 4.23001 5.58199 4.84001 5.44299L5.00004 5.40701C5.18004 5.36701 5.26 5.34801 5.33 5.29401C5.4 5.24101 5.45008 5.15999 5.54008 4.99899L5.62004 4.85199Z" stroke="#08AC7B"/>
<path d="M12.17 6.5C12.17 9.722 9.55996 12.333 6.32996 12.333C3.10996 12.333 0.5 9.722 0.5 6.5C0.5 3.278 3.10996 0.666992 6.32996 0.666992C9.55996 0.666992 12.17 3.278 12.17 6.5Z" stroke="#08AC7B"/>
<path d="M2.45995 11.5L1.93004 13.436C1.40004 15.346 1.13998 16.301 1.48998 16.823C1.60998 17.007 1.77996 17.154 1.96996 17.251C2.50996 17.528 3.35002 17.09 5.03002 16.215C5.59002 15.924 5.87003 15.778 6.17003 15.747C6.28003 15.735 6.38999 15.735 6.49999 15.747C6.79999 15.778 7.08 15.924 7.63 16.215C9.31 17.09 10.1499 17.528 10.6999 17.251C10.8899 17.154 11.05 17.007 11.17 16.823C11.52 16.301 11.26 15.346 10.74 13.436L10.21 11.5" stroke="#08AC7B" stroke-linecap="round"/>
</svg>
