<svg width="16" height="18" viewBox="0 0 16 18" fill="none" xmlns="http://www.w3.org/2000/svg">
<path d="M1.11983 16.129C2.11983 17.333 3.97979 17.333 7.69979 17.333H8.29988C12.0199 17.333 13.8798 17.333 14.8798 16.129M1.11983 16.129C0.119829 14.924 0.459859 13.096 1.14986 9.43799C1.62986 6.83699 1.87988 5.53701 2.79988 4.76801M14.8798 16.129C15.8798 14.924 15.5398 13.096 14.8498 9.43799C14.3698 6.83699 14.1198 5.53701 13.1998 4.76801M13.1998 4.76801C12.2698 4.00001 10.9499 4 8.29988 4H7.69979C5.04979 4 3.72988 4.00001 2.79988 4.76801" stroke="#08AC7B"/>
<path d="M10.5 8.16699L11.33 13.167" stroke="#08AC7B" stroke-linecap="round"/>
<path d="M5.49988 8.16699L4.66992 13.167" stroke="#08AC7B" stroke-linecap="round"/>
<path d="M5.5 4V3.16699C5.5 1.78599 6.62 0.666992 8 0.666992C9.38 0.666992 10.5 1.78599 10.5 3.16699V4" stroke="#08AC7B" stroke-linecap="round"/>
</svg>
